{
    "asset": {
        "version": "2.0"
    },
    "scene": 0,
    "scenes": [
        {
            "nodes": [
                0
            ]
        }
    ],
    "nodes": [
        {
            "children": [
                1
            ],
            "matrix": [
                0.001,
                0,
                0,
                0,
                0,
                0.001,
                0,
                0,
                0,
                0,
                0.001,
                0,
                0,
                0,
                0,
                1
            ],
            "name": "zilo4744F676qu63",
            "extras": {
                "Dtk_PrototypeID": 1
            }
        },
        {
            "mesh": 0,
            "name": "Mesh"
        }
    ],
    "meshes": [
        {
            "primitives": [
                {
                    "attributes": {
                        "NORMAL": 2,
                        "POSITION": 1
                    },
                    "indices": 0,
                    "mode": 4
                }
            ],
            "extras": {
                "Dtk_ID": 101
            }
        }
    ],
    "accessors": [
        {
            "bufferView": 0,
            "byteOffset": 0,
            "componentType": 5123,
            "count": 270,
            "max": [
                113
            ],
            "min": [
                0
            ],
            "type": "SCALAR"
        },
        {
            "bufferView": 1,
            "byteOffset": 0,
            "componentType": 5126,
            "count": 114,
            "max": [
                72.35533905,
                72.35533905,
                35.35533905
            ],
            "min": [
                -72.35533905,
                -72.35533905,
                -2.808864252e-14
            ],
            "type": "VEC3"
        },
        {
            "bufferView": 1,
            "byteOffset": 1368,
            "componentType": 5126,
            "count": 114,
            "max": [
                0.7071067691,
                0.7071067691,
                1
            ],
            "min": [
                -0.7071067691,
                -0.7071067691,
                0.7071067691
            ],
            "type": "VEC3"
        }
    ],
    "bufferViews": [
        {
            "buffer": 0,
            "byteOffset": 0,
            "byteLength": 540,
            "target": 34963
        },
        {
            "buffer": 0,
            "byteOffset": 540,
            "byteLength": 2736,
            "byteStride": 12,
            "target": 34962
        }
    ],
    "buffers": [
        {
            "byteLength": 3276,
            "uri": "t3.bin"
        }
    ]
}